<?xml version="1.0" encoding="utf-8"?>
<!-- Generator: Adobe Illustrator 19.1.0, SVG Export Plug-In . SVG Version: 6.00 Build 0)  -->
<svg version="1.1" id="Layer_1" xmlns="http://www.w3.org/2000/svg" xmlns:xlink="http://www.w3.org/1999/xlink" x="0px" y="0px"
	 viewBox="0 0 120 20" style="enable-background:new 0 0 120 20;" xml:space="preserve">
<style type="text/css">
	.st0{fill:#FFFFFF;}
</style>
<polygon class="st0" points="18.7,18.3 24.2,1.6 25.8,1.6 30.7,18.3 28.2,18.3 24.2,4.7 19.8,18.3 "/>
<polygon class="st0" points="5.2,18.3 10.7,1.6 12.4,1.6 17.2,18.3 14.7,18.3 10.7,4.7 6.3,18.3 "/>
<polygon class="st0" points="60.7,1.6 60.7,18.3 62,18.3 62,5.6 71.1,18.3 72.3,18.3 72.3,1.6 71,1.6 71,14 61.9,1.6 "/>
<polygon class="st0" points="103.1,1.6 103.1,18.3 104.4,18.3 104.4,5.6 113.6,18.3 114.8,18.3 114.8,1.6 113.5,1.6 113.5,14 
	104.3,1.6 "/>
<path class="st0" d="M84.3,10.6c1.4,1.4,3.4,2.8,3.4,4.4c0,1.6-1.4,2.4-2.8,2.4c-1.8,0-3.7-1.5-4.3-2.2l0,1.4c0.7,0.9,2.1,2,4.3,2
	c2.8,0,4.5-1.9,4.5-4c0-1.8-0.4-3-3.7-5.9c-2-1.8-3.4-2.8-3.4-4.3c0-1.1,1.3-2.2,2.7-2.2c1.6,0,2.6,0.6,3.2,1l0-1.2
	c0,0-0.9-0.8-3.2-0.8c-2.2,0-4.3,1.2-4.3,3.6C80.6,7.4,82.9,9.3,84.3,10.6z"/>
<path class="st0" d="M91,1.6c0,0,0,4.1,0,7s0,4.4,0,4.4c0,3.4,1.2,5.7,5.1,5.7c3.4,0,4.5-1.9,4.8-4.6c0.1-0.5,0.1-1.5,0.1-2.5
	c0-0.7,0-1.5,0-2c0-2.9,0-8,0-8h-1.2c0,0,0,7.3,0,8.9c0,1.6,0,3.1,0,3.1c0,1.4,0,4-3.4,4c-2.9,0-3-2.5-3-4.1V1.6H91z"/>
<path class="st0" d="M51.1,1.2C46.7,1.2,44,5.2,44,10c0,4.8,2.7,8.8,7.2,8.8s7.2-3.9,7.2-8.8C58.3,5.2,55.6,1.2,51.1,1.2z
	 M51.1,17.6c-3.3,0-4.8-3.4-4.8-7.5c0-4.2,1.7-7.6,4.8-7.6c3.1,0,4.8,3.5,4.8,7.6C55.9,14.2,54.5,17.6,51.1,17.6z"/>
<g>
	<path class="st0" d="M32.6,1.6v16.7H35V2.6c0,0,0.5,0,1,0c1.7,0,4.1-0.1,4.1,3.7c0,3.8-2.8,3.7-3.6,3.7v0.9l4.5,7.4h2.6L39,10.9
		c1.1,0,3.3-1.1,3.3-4.6c0-4.4-3.7-4.7-5-4.7C35.8,1.6,32.6,1.6,32.6,1.6z"/>
</g>
</svg>
